HIERARCHY
ROOT hip
{
  OFFSET 5.51535 103.731 -2.80141
  CHANNELS 6 Xposition Yposition Zposition Zrotation Xrotation Yrotation
  JOINT abdomen
  {
    OFFSET 0 -1.186 -1.5018
    CHANNELS 6 Xposition Yposition Zposition Zrotation Xrotation Yrotation
    JOINT abdomen2
    {
      OFFSET 0 9.964 0.2134
      CHANNELS 6 Xposition Yposition Zposition Zrotation Xrotation Yrotation
      JOINT chest
      {
        OFFSET 0 13.134 -3.2573
        CHANNELS 6 Xposition Yposition Zposition Zrotation Xrotation Yrotation
        JOINT neck
        {
          OFFSET 0 20.686 -1.6905
          CHANNELS 6 Xposition Yposition Zposition Zrotation Xrotation Yrotation
          JOINT head
          {
            OFFSET 0 7.23801 -0.1237
            CHANNELS 6 Xposition Yposition Zposition Zrotation Xrotation Yrotation
            End Site
            {
              OFFSET 0 0 0
            }
          }
        }
        JOINT lCollar
        {
          OFFSET 1.7069 20.075 5.0056
          CHANNELS 6 Xposition Yposition Zposition Zrotation Xrotation Yrotation
          JOINT lShldr
          {
            OFFSET 13.6458 -0.0470195 -4.849
            CHANNELS 6 Xposition Yposition Zposition Zrotation Xrotation Yrotation
            JOINT lForeArm
            {
              OFFSET 28.3255 -0.97589 2.2888
              CHANNELS 6 Xposition Yposition Zposition Zrotation Xrotation Yrotation
              JOINT lHand
              {
                OFFSET 22.1583 -0.529998 10.8316
                CHANNELS 6 Xposition Yposition Zposition Zrotation Xrotation Yrotation
                JOINT lThumb1
                {
                  OFFSET 0.786 0.111997 2.5817
                  CHANNELS 6 Xposition Yposition Zposition Zrotation Xrotation Yrotation
                  JOINT lThumb2
                  {
                    OFFSET 0.360097 -0.877999 4.2331
                    CHANNELS 6 Xposition Yposition Zposition Zrotation Xrotation Yrotation
                    JOINT lThumb2_End
                    {
                      OFFSET 1.8127 -1.21601 2.2227
                      CHANNELS 6 Xposition Yposition Zposition Zrotation Xrotation Yrotation
                      End Site
                      {
                        OFFSET 0.0180981 -0.012195 0.0222007
                      }
                    }
                  }
                }
                JOINT lCarpal1
                {
                  OFFSET 0.9571 1.114 1.7695
                  CHANNELS 6 Xposition Yposition Zposition Zrotation Xrotation Yrotation
                  JOINT lIndex1
                  {
                    OFFSET 4.12461 0.486992 4.1451
                    CHANNELS 6 Xposition Yposition Zposition Zrotation Xrotation Yrotation
                    JOINT lIndex2
                    {
                      OFFSET 3.4052 -1.45401 2.7682
                      CHANNELS 6 Xposition Yposition Zposition Zrotation Xrotation Yrotation
                      JOINT lIndex2_End
                      {
                        OFFSET 1.45309 -1.79499 1.2713
                        CHANNELS 6 Xposition Yposition Zposition Zrotation Xrotation Yrotation
                        End Site
                        {
                          OFFSET 0.0144979 -0.0179083 0.0126995
                        }
                      }
                    }
                  }
                  JOINT lMid1
                  {
                    OFFSET 5.6954 0.209987 2.1184
                    CHANNELS 6 Xposition Yposition Zposition Zrotation Xrotation Yrotation
                    JOINT lMid2
                    {
                      OFFSET 3.9766 -1.53999 2.3863
                      CHANNELS 6 Xposition Yposition Zposition Zrotation Xrotation Yrotation
                      JOINT lMid2_End
                      {
                        OFFSET 1.4042 -1.926 1.125
                        CHANNELS 6 Xposition Yposition Zposition Zrotation Xrotation Yrotation
                        End Site
                        {
                          OFFSET 0.013999 -0.0193044 0.011301
                        }
                      }
                    }
                  }
                }
                JOINT lCarpal2
                {
                  OFFSET 2.0956 0.66 -0.3894
                  CHANNELS 6 Xposition Yposition Zposition Zrotation Xrotation Yrotation
                  JOINT lRing1
                  {
                    OFFSET 5.0395 -0.090013 2.4971
                    CHANNELS 6 Xposition Yposition Zposition Zrotation Xrotation Yrotation
                    JOINT lRing2
                    {
                      OFFSET 3.7921 -1.55199 1.4806
                      CHANNELS 6 Xposition Yposition Zposition Zrotation Xrotation Yrotation
                      JOINT lRing2_End
                      {
                        OFFSET 1.4655 -1.808 0.9609
                        CHANNELS 6 Xposition Yposition Zposition Zrotation Xrotation Yrotation
                        End Site
                        {
                          OFFSET 0.0147015 -0.0181014 0.00959957
                        }
                      }
                    }
                  }
                  JOINT lPinky1
                  {
                    OFFSET 4.9141 -1.269 0.3591
                    CHANNELS 6 Xposition Yposition Zposition Zrotation Xrotation Yrotation
                    JOINT lPinky2
                    {
                      OFFSET 3.1477 -1.685 0.8462
                      CHANNELS 6 Xposition Yposition Zposition Zrotation Xrotation Yrotation
                      JOINT lPinky2_End
                      {
                        OFFSET 0.805498 -1.58501 0.795499
                        CHANNELS 6 Xposition Yposition Zposition Zrotation Xrotation Yrotation
                        End Site
                        {
                          OFFSET 0.00809703 -0.0157944 0.00799848
                        }
                      }
                    }
                  }
                }
              }
            }
          }
        }
        JOINT rCollar
        {
          OFFSET -1.7069 20.075 5.0056
          CHANNELS 6 Xposition Yposition Zposition Zrotation Xrotation Yrotation
          JOINT rShldr
          {
            OFFSET -13.6458 -0.0470107 -4.849
            CHANNELS 6 Xposition Yposition Zposition Zrotation Xrotation Yrotation
            JOINT rForeArm
            {
              OFFSET -28.3255 -0.975895 2.2888
              CHANNELS 6 Xposition Yposition Zposition Zrotation Xrotation Yrotation
              JOINT rHand
              {
                OFFSET -22.1583 -0.530007 10.8316
                CHANNELS 6 Xposition Yposition Zposition Zrotation Xrotation Yrotation
                JOINT rThumb1
                {
                  OFFSET -0.785997 0.112005 2.5817
                  CHANNELS 6 Xposition Yposition Zposition Zrotation Xrotation Yrotation
                  JOINT rThumb2
                  {
                    OFFSET -0.360106 -0.877994 4.2331
                    CHANNELS 6 Xposition Yposition Zposition Zrotation Xrotation Yrotation
                    JOINT rThumb2_End
                    {
                      OFFSET -1.8127 -1.216 2.2227
                      CHANNELS 6 Xposition Yposition Zposition Zrotation Xrotation Yrotation
                      End Site
                      {
                        OFFSET -0.0180972 -0.0121973 0.0222005
                      }
                    }
                  }
                }
                JOINT rCarpal1
                {
                  OFFSET -0.9571 1.114 1.7695
                  CHANNELS 6 Xposition Yposition Zposition Zrotation Xrotation Yrotation
                  JOINT rIndex1
                  {
                    OFFSET -4.1246 0.487011 4.1451
                    CHANNELS 6 Xposition Yposition Zposition Zrotation Xrotation Yrotation
                    JOINT rIndex2
                    {
                      OFFSET -3.4052 -1.45401 2.7682
                      CHANNELS 6 Xposition Yposition Zposition Zrotation Xrotation Yrotation
                      JOINT rIndex2_End
                      {
                        OFFSET -1.4531 -1.795 1.2713
                        CHANNELS 6 Xposition Yposition Zposition Zrotation Xrotation Yrotation
                        End Site
                        {
                          OFFSET -0.0145077 -0.0180048 0.0127017
                        }
                      }
                    }
                  }
                  JOINT rMid1
                  {
                    OFFSET -5.6954 0.210002 2.1184
                    CHANNELS 6 Xposition Yposition Zposition Zrotation Xrotation Yrotation
                    JOINT rMid2
                    {
                      OFFSET -3.9766 -1.54 2.3863
                      CHANNELS 6 Xposition Yposition Zposition Zrotation Xrotation Yrotation
                      JOINT rMid2_End
                      {
                        OFFSET -1.4042 -1.926 1.125
                        CHANNELS 6 Xposition Yposition Zposition Zrotation Xrotation Yrotation
                        End Site
                        {
                          OFFSET -0.0139948 -0.0192916 0.0112994
                        }
                      }
                    }
                  }
                }
                JOINT rCarpal2
                {
                  OFFSET -2.0956 0.66 -0.3894
                  CHANNELS 6 Xposition Yposition Zposition Zrotation Xrotation Yrotation
                  JOINT rRing1
                  {
                    OFFSET -5.03951 -0.0899879 2.4971
                    CHANNELS 6 Xposition Yposition Zposition Zrotation Xrotation Yrotation
                    JOINT rRing2
                    {
                      OFFSET -3.7921 -1.55201 1.4806
                      CHANNELS 6 Xposition Yposition Zposition Zrotation Xrotation Yrotation
                      JOINT rRing2_End
                      {
                        OFFSET -1.4655 -1.808 0.960901
                        CHANNELS 6 Xposition Yposition Zposition Zrotation Xrotation Yrotation
                        End Site
                        {
                          OFFSET -0.0146934 -0.0180999 0.00959832
                        }
                      }
                    }
                  }
                  JOINT rPinky1
                  {
                    OFFSET -4.91411 -1.26899 0.359202
                    CHANNELS 6 Xposition Yposition Zposition Zrotation Xrotation Yrotation
                    JOINT rPinky2
                    {
                      OFFSET -3.14769 -1.68501 0.846199
                      CHANNELS 6 Xposition Yposition Zposition Zrotation Xrotation Yrotation
                      JOINT rPinky2_End
                      {
                        OFFSET -0.805498 -1.585 0.7955
                        CHANNELS 6 Xposition Yposition Zposition Zrotation Xrotation Yrotation
                        End Site
                        {
                          OFFSET -0.00810035 -0.0158035 0.00800029
                        }
                      }
                    }
                  }
                }
              }
            }
          }
        }
      }
    }
  }
  JOINT lThigh
  {
    OFFSET 8.367 -8.2066 0.5982
    CHANNELS 6 Xposition Yposition Zposition Zrotation Xrotation Yrotation
    JOINT lShin
    {
      OFFSET 2.1923 -43.463 -0.4932
      CHANNELS 6 Xposition Yposition Zposition Zrotation Xrotation Yrotation
      JOINT lFoot
      {
        OFFSET 0.733301 -45.8593 -2.6451
        CHANNELS 6 Xposition Yposition Zposition Zrotation Xrotation Yrotation
        End Site
        {
          OFFSET 2.6618 -4.2699 12.3931
        }
      }
    }
  }
  JOINT rThigh
  {
    OFFSET -8.367 -8.2066 0.5982
    CHANNELS 6 Xposition Yposition Zposition Zrotation Xrotation Yrotation
    JOINT rShin
    {
      OFFSET -2.1923 -43.463 -0.4931
      CHANNELS 6 Xposition Yposition Zposition Zrotation Xrotation Yrotation
      JOINT rFoot
      {
        OFFSET -0.733299 -45.8593 -2.6451
        CHANNELS 6 Xposition Yposition Zposition Zrotation Xrotation Yrotation
        End Site
        {
          OFFSET -2.6618 -4.2699 12.3931
        }
      }
    }
  }
}
MOTION
Frames:	4
Frame Time:	0.0333333
-16.5392 86.2312 -43.8019 29.8488 17.7688 -4.84282 4.41015e-007 -1.186 -1.5018 -5.42143 -1.51392 -4.41251 1.17676e-007 9.964 0.213399 -10.9476 -2.59988 -8.95183 5.45882e-008 13.134 -3.2573 -10.9476 -2.59987 -8.95184 6.51668e-007 20.686 -1.6905 -1.43331 0.746139 49.0764 1.42035e-006 7.23801 -0.123701 -2.82726 11.286 23.8469 1.7069 20.075 5.0056 -5.33183 1.27153 14.0845 13.6458 -0.0470142 -4.849 -64.7399 9.42389 -25.2335 28.3255 -0.975902 2.2888 -20.2126 18.2879 -38.5847 22.1583 -0.529991 10.8316 3.26574 -4.3585 -38.7241 0.786003 0.111997 2.5817 19.1896 33.0662 -26.8262 0.360096 -0.878001 4.2331 -6.75503 -0.0799679 -12.3389 1.8127 -1.21601 2.2227 -3.49843 -0.224172 -6.39742 0.9571 1.114 1.7695 -3.18055e-015 0 -0 4.1246 0.486992 4.1451 9.21058 -0.291652 2.70584 3.4052 -1.454 2.7682 -13.1023 5.04483 5.85063 1.4531 -1.79499 1.2713 -15.2804 5.73066 6.90543 5.6954 0.209988 2.1184 6.87315 -3.68203 -1.82731 3.9766 -1.53999 2.3863 -24.6921 9.22083 12.0009 1.4042 -1.926 1.125 3.04055 -1.53861 -1.23056 2.0956 0.66 -0.3894 -3.18055e-015 0 -0 5.0395 -0.0900118 2.4971 1.29616 -4.68236 2.16202 3.7921 -1.55199 1.4806 -5.16699 2.60909 2.54593 1.4655 -1.808 0.960903 -3.23591 1.66862 1.57323 4.9141 -1.269 0.359104 11.1273 -11.5875 3.48415 3.1477 -1.685 0.846203 -10.0907 5.19027 5.0819 0.805497 -1.58501 0.795503 -2.59666 1.42793 1.23498 -1.7069 20.075 5.0056 -21.9562 -0.656252 10.0614 -13.6458 -0.0470066 -4.849 44.4816 0.504097 59.1627 -28.3255 -0.975901 2.28881 46.8047 -6.80168 92.2977 -22.1583 -0.530006 10.8316 19.9476 -22.7854 38.6108 -0.785997 0.112005 2.58169 -19.2123 49.9311 17.7821 -0.360108 -0.877993 4.2331 -0.518339 0.461567 -1.59081 -1.81269 -1.216 2.2227 -3.82598 4.14997 -12.8545 -0.9571 1.114 1.7695 6.36111e-015 3.18055e-015 -1.59028e-015 -4.12461 0.487012 4.1451 -23.6187 3.40244 -15.5054 -3.4052 -1.45401 2.7682 39.498 10.0976 -9.27463 -1.4531 -1.795 1.2713 42.8872 10.6059 -10.3334 -5.69541 0.210002 2.11841 -1.04231 5.48657 -10.0636 -3.9766 -1.54 2.3863 52.3089 13.53 -14.1043 -1.4042 -1.926 1.125 44.0034 12.3922 -11.1856 -2.0956 0.66 -0.3894 6.36111e-015 3.18055e-015 -1.59028e-015 -5.03951 -0.0899867 2.49711 16.4925 0.275105 -5.65899 -3.7921 -1.552 1.4806 37.334 11.9097 -10.7862 -1.4655 -1.808 0.960902 38.6321 12.1694 -11.2724 -4.91411 -1.26899 0.359201 24.6637 -0.263227 -2.07533 -3.14769 -1.68501 0.846196 30.529 11.3151 -8.19437 -0.8055 -1.58499 0.795502 30.4593 11.296 -8.16984 8.36701 -8.20661 0.598202 -46.855 -59.2097 -18.4343 2.1923 -43.4631 -0.493204 -1.76667 50.9731 0.701545 0.7333 -45.8593 -2.6451 2.55653 -7.90255 -7.06466 -8.36701 -8.20661 0.598204 -66.3329 -66.5949 -31.6478 -2.1923 -43.4631 -0.49311 3.68574 34.8293 -2.99531 -0.73331 -45.8593 -2.6451 14.1539 21.3672 12.821 
-16.3587 87.468 -43.0117 30.3491 17.4245 -5.24531 5.42072e-007 -1.186 -1.5018 -5.4691 -1.59623 -4.26713 5.88631e-007 9.964 0.213398 -11.0467 -2.77417 -8.67085 3.91121e-007 13.134 -3.2573 -11.0467 -2.77417 -8.67086 5.59266e-007 20.686 -1.6905 -1.51209 0.113184 49.4217 -9.72842e-007 7.238 -0.123699 -2.52707 11.5266 23.7801 1.7069 20.075 5.0056 -5.60376 1.31561 14.6503 13.6458 -0.0470178 -4.849 -64.7389 9.5015 -25.0356 28.3255 -0.975894 2.2888 -20.604 19.2505 -38.0262 22.1583 -0.529993 10.8316 2.35259 -3.77893 -39.0813 0.786003 0.111997 2.5817 18.7553 32.8695 -26.4866 0.360099 -0.877997 4.2331 -6.7742 -0.0781326 -12.374 1.8127 -1.21601 2.2227 -3.32905 -0.221354 -6.08387 0.9571 1.114 1.7695 -3.18055e-015 0 -0 4.12461 0.486992 4.1451 8.94594 -0.248827 2.68413 3.4052 -1.45401 2.7682 -13.0991 5.04381 5.8491 1.4531 -1.79499 1.2713 -15.2799 5.73048 6.90517 5.6954 0.209987 2.1184 6.81842 -3.61039 -1.822 3.9766 -1.53999 2.3863 -24.4641 9.16349 11.8778 1.4042 -1.926 1.125 3.06877 -1.55329 -1.24166 2.0956 0.66 -0.3894 -3.18055e-015 0 -0 5.0395 -0.0900129 2.4971 1.36623 -4.64446 2.1357 3.7921 -1.55199 1.4806 -5.12982 2.59137 2.52699 1.4655 -1.808 0.960898 -3.08085 1.59126 1.49622 4.9141 -1.269 0.359099 11.1609 -11.538 3.53883 3.1477 -1.685 0.846201 -9.72724 5.02351 4.88751 0.805498 -1.58501 0.795502 -2.3005 1.2703 1.09214 -1.7069 20.075 5.0056 -21.0844 -0.680924 10.7471 -13.6458 -0.0470077 -4.849 44.9657 1.04242 57.3755 -28.3255 -0.975894 2.28879 45.2592 -4.9056 91.2307 -22.1583 -0.530001 10.8316 20.0242 -22.7118 39.393 -0.785999 0.112005 2.5817 -19.2123 49.9312 17.7821 -0.36011 -0.877992 4.2331 -0.518211 0.461448 -1.59088 -1.81269 -1.216 2.2227 -3.81508 4.13516 -12.8131 -0.9571 1.114 1.7695 -3.18055e-015 -3.18055e-015 3.18055e-015 -4.12461 0.487011 4.14511 -23.6186 3.40228 -15.5054 -3.40519 -1.454 2.76819 39.498 10.0976 -9.27465 -1.4531 -1.795 1.2713 42.8423 10.5996 -10.3192 -5.6954 0.210002 2.1184 -1.04226 5.48641 -10.0636 -3.9766 -1.54 2.3863 52.3089 13.53 -14.1044 -1.4042 -1.92599 1.125 44.0034 12.3921 -11.1856 -2.0956 0.66 -0.3894 -3.18055e-015 -3.18055e-015 3.18055e-015 -5.03951 -0.0899871 2.4971 16.4925 0.275117 -5.65899 -3.7921 -1.55201 1.4806 37.3339 11.9097 -10.7862 -1.4655 -1.808 0.960902 38.6321 12.1694 -11.2724 -4.91411 -1.26899 0.359208 24.6637 -0.263156 -2.07536 -3.14769 -1.68501 0.846196 30.529 11.3151 -8.19438 -0.805498 -1.585 0.795495 30.4594 11.2959 -8.16991 8.36699 -8.2066 0.5982 -45.8583 -56.7233 -17.0984 2.1923 -43.463 -0.493201 -1.75839 47.8784 0.612472 0.733303 -45.8593 -2.6451 2.52031 -7.21457 -6.87364 -8.36699 -8.2066 0.598198 -61.7807 -64.9117 -25.6287 -2.1923 -43.4631 -0.493111 2.75526 32.0648 -2.31397 -0.733302 -45.8593 -2.64511 14.9162 21.3633 11.5043 
-16.2118 88.5934 -42.2601 30.9021 16.7886 -5.35439 -1.29452e-006 -1.186 -1.5018 -5.50875 -1.6717 -4.09388 4.9323e-007 9.964 0.213399 -11.1284 -2.93849 -8.33356 1.03975e-006 13.134 -3.2573 -11.1284 -2.93849 -8.33356 5.67836e-007 20.686 -1.6905 -1.45883 -0.0848406 49.6501 -1.92499e-007 7.23801 -0.123702 -2.63756 11.7619 23.5773 1.7069 20.075 5.0056 -5.5772 1.35288 15.1005 13.6458 -0.0470113 -4.849 -64.9739 9.90579 -24.6543 28.3255 -0.975906 2.2888 -20.7858 20.2051 -37.5532 22.1583 -0.529992 10.8316 1.33744 -3.46575 -39.3405 0.786004 0.111996 2.5817 18.3234 32.6706 -26.1496 0.360097 -0.878001 4.2331 -6.79338 -0.0762745 -12.409 1.8127 -1.21601 2.2227 -3.16031 -0.21865 -5.77609 0.9571 1.114 1.7695 6.36111e-015 1.59028e-015 -3.97569e-015 4.1246 0.486993 4.1451 8.68135 -0.205874 2.66261 3.4052 -1.454 2.7682 -13.0898 5.04082 5.84467 1.4531 -1.79499 1.2713 -15.2793 5.73032 6.90489 5.6954 0.209987 2.1184 6.76364 -3.53875 -1.81661 3.9766 -1.53999 2.3863 -24.2258 9.103 11.7494 1.4042 -1.926 1.125 3.10432 -1.57177 -1.25563 2.0956 0.66 -0.3894 6.36111e-015 1.59028e-015 -3.97569e-015 5.0395 -0.0900119 2.4971 1.43629 -4.60659 2.10932 3.7921 -1.55199 1.4806 -5.09266 2.57361 2.50807 1.4655 -1.808 0.960898 -2.92587 1.51371 1.41941 4.9141 -1.269 0.359104 11.1945 -11.4884 3.59345 3.1477 -1.685 0.846203 -9.34601 4.84697 4.68447 0.805498 -1.58501 0.795499 -2.00473 1.11194 0.95011 -1.7069 20.075 5.0056 -20.5741 -0.712539 11.4843 -13.6458 -0.0470177 -4.849 45.7797 1.88612 55.2839 -28.3255 -0.975892 2.28881 44.2129 -3.22089 90.5184 -22.1583 -0.530005 10.8316 20.1204 -22.1547 39.7862 -0.786005 0.112005 2.58171 -19.2124 49.9313 17.7821 -0.360102 -0.877994 4.2331 -0.5182 0.461445 -1.59087 -1.8127 -1.216 2.2227 -3.80417 4.12035 -12.7717 -0.9571 1.114 1.7695 -3.53113e-031 -3.18055e-015 -6.36111e-015 -4.12461 0.487011 4.14511 -23.6186 3.4023 -15.5054 -3.4052 -1.45401 2.7682 39.4979 10.0976 -9.27465 -1.4531 -1.795 1.2713 42.7975 10.5933 -10.305 -5.6954 0.210003 2.1184 -1.04225 5.48643 -10.0636 -3.9766 -1.54 2.38629 52.3089 13.53 -14.1044 -1.4042 -1.92599 1.125 44.0034 12.3921 -11.1855 -2.0956 0.66 -0.3894 -3.53113e-031 -3.18055e-015 -6.36111e-015 -5.03951 -0.0899871 2.4971 16.4925 0.275093 -5.659 -3.7921 -1.55201 1.4806 37.3339 11.9098 -10.7862 -1.4655 -1.808 0.960903 38.6321 12.1694 -11.2724 -4.91411 -1.26899 0.359207 24.6637 -0.263301 -2.07531 -3.14769 -1.68501 0.846195 30.529 11.3151 -8.19436 -0.805497 -1.585 0.795497 30.4593 11.2958 -8.16988 8.36701 -8.2066 0.598202 -45.1808 -53.8981 -16.4106 2.1923 -43.463 -0.493195 -1.76473 44.7274 0.517704 0.733302 -45.8594 -2.6451 2.24866 -6.56296 -6.03353 -8.367 -8.20659 0.598198 -58.4763 -62.8039 -21.0714 -2.1923 -43.463 -0.493088 2.22709 29.6039 -1.89275 -0.733301 -45.8593 -2.6451 15.6006 21.4673 10.6716 
-16.0818 89.6748 -41.5399 31.129 16.2056 -5.23584 1.46431e-007 -1.186 -1.5018 -5.49286 -1.68297 -3.98129 1.51868e-006 9.964 0.2134 -11.095 -2.97306 -8.1096 -1.25476e-006 13.134 -3.2573 -11.095 -2.97305 -8.10959 -4.60792e-007 20.686 -1.69051 -1.42814 -0.899896 49.9301 3.46227e-007 7.23801 -0.1237 -2.48175 12.0289 23.4182 1.7069 20.075 5.0056 -5.64644 1.37164 15.3743 13.6458 -0.0470152 -4.849 -64.9469 10.1231 -24.4695 28.3255 -0.975892 2.2888 -20.7972 21.0471 -37.4396 22.1583 -0.529985 10.8316 0.288009 -3.48653 -39.3615 0.786004 0.111997 2.5817 17.8938 32.4696 -25.8151 0.360098 -0.877999 4.2331 -6.8136 -0.0743139 -12.446 1.8127 -1.21602 2.2227 -2.99627 -0.215156 -5.4768 0.9571 1.114 1.7695 3.18055e-015 -1.59028e-015 -0 4.12461 0.486993 4.1451 8.41677 -0.162817 2.64132 3.4052 -1.454 2.7682 -13.0806 5.03781 5.84022 1.4531 -1.79499 1.2713 -15.2788 5.73015 6.90461 5.6954 0.209988 2.11841 6.7089 -3.46711 -1.81117 3.9766 -1.53999 2.3863 -23.9877 9.04202 11.6212 1.4042 -1.926 1.125 3.13988 -1.59027 -1.26957 2.0956 0.66 -0.3894 3.18055e-015 -1.59028e-015 -0 5.0395 -0.0900121 2.4971 1.5064 -4.56873 2.08291 3.7921 -1.55199 1.4806 -5.04886 2.55271 2.48577 1.4655 -1.808 0.960902 -2.771 1.4359 1.34282 4.9141 -1.269 0.359104 11.228 -11.4389 3.64804 3.1477 -1.685 0.846198 -8.96553 4.6691 4.48268 0.8055 -1.58501 0.795497 -1.70936 0.952825 0.808917 -1.7069 20.075 5.0056 -20.3508 -0.738114 11.9764 -13.6458 -0.0470165 -4.849 46.7989 2.881 53.5862 -28.3255 -0.975897 2.28881 43.3579 -1.9151 89.8725 -22.1583 -0.530004 10.8316 20.3521 -21.2411 40.156 -0.786003 0.112005 2.5817 -19.2122 49.9311 17.782 -0.360105 -0.877995 4.2331 -0.518214 0.461445 -1.59087 -1.81269 -1.21601 2.2227 -3.79326 4.10555 -12.7303 -0.9571 1.114 1.7695 3.18055e-015 3.18055e-015 -1.59028e-015 -4.12461 0.487013 4.14511 -23.6186 3.40233 -15.5054 -3.4052 -1.45401 2.7682 39.4979 10.0976 -9.27465 -1.45309 -1.795 1.27129 42.7526 10.5869 -10.2909 -5.69541 0.210002 2.11841 -1.04224 5.48644 -10.0636 -3.9766 -1.54 2.3863 52.3089 13.5301 -14.1044 -1.4042 -1.926 1.125 44.0034 12.3922 -11.1856 -2.0956 0.66 -0.3894 3.18055e-015 3.18055e-015 -1.59028e-015 -5.03951 -0.0899867 2.4971 16.4925 0.275117 -5.65899 -3.7921 -1.55201 1.4806 37.3339 11.9098 -10.7862 -1.4655 -1.808 0.960905 38.6321 12.1695 -11.2724 -4.91411 -1.26899 0.359206 24.6638 -0.263312 -2.07531 -3.1477 -1.68501 0.846198 30.529 11.3152 -8.19435 -0.805502 -1.58499 0.795504 30.4593 11.2958 -8.16988 8.367 -8.2066 0.598202 -44.5731 -51.0468 -16.1811 2.1923 -43.463 -0.493205 -1.78666 41.6187 0.438471 0.7333 -45.8593 -2.6451 2.36962 -5.79887 -5.33393 -8.36701 -8.2066 0.598204 -55.743 -60.3387 -17.7306 -2.1923 -43.463 -0.493106 1.70832 26.8426 -1.48105 -0.733304 -45.8593 -2.64511 16.3316 21.7481 9.67324 
